<svg version="1.2" xmlns="http://www.w3.org/2000/svg" viewBox="0 0 16 15" width="17" height="16">
	<title>生成-svg</title>
	<style>
		.s0 { fill: none } 
		.s1 { fill: none;stroke: #f76400 } 
		.s2 { fill: none;stroke: #f76400;stroke-linecap: round } 
	</style>
	<g id="页面-">
		<g id="明色1">
			<filter id="f0">
				<feFlood flood-color="#333333" flood-opacity="1" />
				<feBlend mode="normal" in2="SourceGraphic"/>
				<feComposite in2="SourceAlpha" operator="in" />
			</filter>
			<g id="编译调试工具" filter="url(#f0)">
				<g id="关闭备份-2">
					<g id="build默认">
						<g id="icon/14/生成">
							<path id="矩形" class="s0" d="m1 0h14v14h-14z"/>
							<g id="编组-6">
								<path id="矩形" class="s1" d="m7.8 0.6l6.4 3.4q0.2 0.1 0.3 0.3 0 0.3-0.1 0.5 0 0.1-0.2 0.2l-6 3.2q-0.2 0.1-0.4 0l-6-3.2q-0.2-0.1-0.3-0.3 0-0.2 0.1-0.4 0-0.2 0.2-0.3z"/>
								<path id="路径" class="s2" d="m12.8 7.8l1.7 1c0.5 0.3 0.6 0.9 0.4 1.4q-0.2 0.3-0.4 0.5l-6.1 3.2c-0.2 0.1-0.6 0.1-0.8 0l-6.1-3.2c-0.4-0.3-0.6-0.9-0.4-1.4q0.1-0.3 0.4-0.5l1.7-1"/>
								<path id="路径-2" class="s2" d="m8.2 3q-2.8 2.1-0.7 1.7c2.1-0.3 2.9-1.2 0.7 1.4"/>
							</g>
						</g>
					</g>
				</g>
			</g>
		</g>
	</g>
</svg>