<?xml version="1.0" encoding="UTF-8"?>
<svg width="12px" height="12px" viewBox="0 0 12 12" version="1.1" xmlns="http://www.w3.org/2000/svg" xmlns:xlink="http://www.w3.org/1999/xlink">
    <title>icon/14/global</title>
    <g id="页面-" stroke="none" stroke-width="1" fill="none" fill-rule="evenodd">
        <g id="明色1" transform="translate(-57.000000, -742.000000)">
            <g id="工具链备份-2" transform="translate(0.000000, 688.000000)">
                <g id="设置默认" transform="translate(0.000000, 40.000000)">
                    <g id="icon/14/global" transform="translate(56.000000, 13.000000)">
                        <rect id="矩形" x="0" y="0" width="14" height="14"></rect>
                        <g transform="translate(1.000000, 1.000000)" fill="#333333" fill-rule="nonzero">
                            <path d="M12,4 L12,10 L7,10 L7,4 L12,4 Z M11,5 L8,5 L8,9 L11,9 L11,5 Z" id="矩形"></path>
                            <polygon id="矩形" points="10 2 10 4 9 4 9 2"></polygon>
                            <polygon id="矩形备份" points="10 10 10 12 9 12 9 10"></polygon>
                            <path d="M5,2 L5,8 L0,8 L0,2 L5,2 Z M4,3 L1,3 L1,7 L4,7 L4,3 Z" id="矩形"></path>
                            <polygon id="矩形" points="3 0 3 2 2 2 2 0"></polygon>
                            <polygon id="矩形备份" points="3 8 3 10 2 10 2 8"></polygon>
                        </g>
                    </g>
                </g>
            </g>
        </g>
    </g>
</svg>