<?xml version="1.0" encoding="UTF-8"?>
<svg width="12px" height="14px" viewBox="0 0 12 14" version="1.1" xmlns="http://www.w3.org/2000/svg" xmlns:xlink="http://www.w3.org/1999/xlink">
    <title>icon/14/验证调试</title>
    <g id="控件" stroke="none" stroke-width="1" fill="none" fill-rule="evenodd">
        <g id="left" transform="translate(-37.000000, -581.000000)">
            <g id="工具链备份" transform="translate(0.000000, 568.000000)">
                <g id="icon/14/验证调试" transform="translate(36.000000, 13.000000)">
                    <rect id="矩形" x="0" y="0" width="14" height="14"></rect>
                    <g transform="translate(1.000000, 0.500000)" fill="#D5D3D4" fill-rule="nonzero">
                        <path d="M8.14419331,4.64871436 C8.33820301,4.45220775 8.65477903,4.45018361 8.85128564,4.64419331 C9.04779225,4.83820301 9.04981639,5.15477903 8.85580669,5.35128564 L5.89392613,8.35128564 C5.70396034,8.5436963 5.3954486,8.55023076 5.19750607,8.36603625 L3.15938663,6.46947344 C2.9572304,6.28135788 2.94584819,5.96498007 3.13396375,5.76282383 C3.32207932,5.56066759 3.63845713,5.54928538 3.84061337,5.73740095 L5.523,7.303 L8.14419331,4.64871436 Z" id="路径"></path>
                        <path d="M5.56010381,0.0581414893 L1.185422,1.23126928 C0.484412357,1.41927545 0,2.02912266 0,2.72377169 L0,7.22473959 C0,8.31658821 0.46951793,9.36063594 1.29903271,10.1129403 L1.53660699,10.3265315 L1.65356422,10.4302773 L1.88354831,10.6316966 L2.10834885,10.824707 L2.32829338,11.0095938 L2.54339615,11.1863977 L2.75362866,11.3550645 C3.03039279,11.5741574 3.29438319,11.7715148 3.54592739,11.9468381 L3.73246371,12.074357 C4.65296968,12.6910584 5.40031115,13 6,13 C6.59970309,13 7.34704456,12.6910584 8.26755053,12.074357 L8.45408685,11.9468381 C8.72445739,11.7573422 8.98868082,11.5599919 9.24638558,11.3550645 L9.45661809,11.1863977 L9.67170662,11.0096074 L9.89165115,10.8247206 L10.1164659,10.6317102 L10.3464358,10.4302909 L10.5815749,10.2207615 L10.7009673,10.1129539 C11.5304821,9.36064953 12,8.31660179 12,7.22475317 L12,2.72377169 C12,2.02912648 11.5155962,1.41928051 10.8145922,1.23126928 L6.43988195,0.0578697967 C6.1521902,-0.0192899322 5.84776708,-0.0192899322 5.56007533,0.0578697967 L5.56010381,0.0581414893 Z M6.15219535,1.03449593 L10.5268772,2.20762372 C10.7692658,2.27267205 10.9367045,2.48357123 10.9367045,2.72377169 L10.9367045,7.22473959 C10.9367045,8.03876506 10.5866729,8.8171555 9.96819384,9.37799834 L9.74945975,9.57448642 L9.53528262,9.76372029 L9.32627479,9.94514301 L9.12242202,10.1190263 L8.92343951,10.2847995 L8.82592056,10.3647858 L8.63452823,10.519243 L8.5409539,10.5934423 L8.35746505,10.7363118 L8.17913126,10.8713566 C8.14996671,10.893092 8.12080217,10.9148274 8.09193667,10.9356934 L7.92181965,11.0591505 C7.89430743,11.0790665 7.8665556,11.0986795 7.83856968,11.1179855 L7.67665519,11.2298549 L7.59766313,11.2828893 L7.44363788,11.3831575 C7.41843219,11.3993911 7.39321227,11.4150406 7.36859044,11.4303912 L7.22276771,11.5190717 C6.69903058,11.8300374 6.28769372,11.9856629 5.99999288,11.9856629 C5.71229204,11.9856629 5.30125423,11.8300374 4.77720381,11.5190717 L4.63138108,11.4303912 C4.60628504,11.4147698 4.58127365,11.399025 4.55634788,11.3831575 L4.40262168,11.2828893 L4.24312807,11.1750817 L4.16110278,11.1179855 L3.99401899,10.9985766 C3.93597578,10.956474 3.87825277,10.9139711 3.8208545,10.8710713 L3.64252071,10.7363118 L3.45903186,10.5934423 L3.27067276,10.4427344 C3.23847498,10.417236 3.20657626,10.3911535 3.1740652,10.3647858 L2.97781686,10.2027755 L2.77639922,10.0329541 L2.56981227,9.85530786 L2.35836932,9.6701222 L2.1417713,9.4771118 L2.03179192,9.37769948 C1.4134723,8.81699413 1.06329547,8.03884538 1.06329547,7.22502486 L1.06329547,2.72377169 C1.0634559,2.48360193 1.23102656,2.27283477 1.47342189,2.20792258 L5.8481037,1.03421065 C5.94744797,1.0076081 6.05255203,1.0076081 6.1518963,1.03421065 L6.15219535,1.03449593 Z" id="形状"></path>
                    </g>
                </g>
            </g>
        </g>
    </g>
</svg>