<?xml version="1.0" encoding="UTF-8"?>
<svg width="16px" height="15px" viewBox="0 0 16 15" version="1.1" xmlns="http://www.w3.org/2000/svg" xmlns:xlink="http://www.w3.org/1999/xlink">
    <title>icon/14/生成</title>
    <g id="控件" stroke="none" stroke-width="1" fill="none" fill-rule="evenodd">
        <g id="build默认" transform="translate(-19.000000, -4.000000)">
            <g id="icon/14/生成" transform="translate(20.000000, 4.000000)">
                <rect id="矩形" x="0" y="0" width="14" height="14"></rect>
                <g id="编组-6" stroke="#D5D3D4">
                    <path d="M6.79976796,0.55469263 L13.2390624,4.02577465 C13.3599127,4.09523892 13.4392295,4.21379319 13.4761932,4.34418458 C13.5162234,4.48539347 13.5074296,4.64335144 13.4387189,4.78444279 C13.3913165,4.88177941 13.3184636,4.96235127 13.2270092,5.01112706 L13.2270092,5.01112706 L7.18820226,8.23183142 C7.06950749,8.29513543 6.93051592,8.29513543 6.81182116,8.23183142 L6.81182116,8.23183142 L0.773014248,5.01112706 C0.651041387,4.94607472 0.569084005,4.83083758 0.528766866,4.70256162 C0.484774599,4.56259259 0.489412723,4.40429843 0.554199579,4.26092232 C0.599182454,4.16137327 0.6702854,4.07789465 0.76096105,4.02577465 L0.76096105,4.02577465 L6.79976796,0.55469263 Z" id="矩形"></path>
                    <path d="M11.8064535,7.84575664 L11.8064535,7.84575664 L13.4882315,8.81243588 C13.9573576,9.08208768 14.1364504,9.71384839 13.8882466,10.2235129 C13.7934185,10.4182339 13.644326,10.5753771 13.4623037,10.6724559 L7.42349679,13.8931603 C7.15639803,14.0356132 6.84362538,14.0356132 6.57652663,13.8931603 L0.537719713,10.6724559 C0.0612928374,10.418361 -0.135326726,9.79278176 0.0985576271,9.27518559 C0.187914814,9.07743427 0.332558974,8.91545827 0.511791952,8.81243588 L2.23946854,7.81937429 L2.23946854,7.81937429" id="路径" stroke-linecap="round"></path>
                    <path d="M7.23592886,2.98387169 C5.35575769,4.37196793 5.10503594,4.95865634 6.48376361,4.74393692 C8.55185511,4.42185779 9.37568878,3.45505988 7.23592886,6.11596324" id="路径-2" stroke-linecap="round"></path>
                </g>
            </g>
        </g>
    </g>
</svg>